<mxfile host="app.diagrams.net" modified="2021-07-29T03:11:05.590Z" agent="5.0 (Windows NT 10.0; Win64; x64) AppleWebKit/537.36 (KHTML, like Gecko) Chrome/91.0.4472.124 Safari/537.36" etag="T8RcGOiQVY2ElNRqz9jY" version="14.8.6" type="github">
  <diagram id="0g_ZhgoLusf_EZwTvXoB" name="Page-1">
    <mxGraphModel dx="1422" dy="762" grid="1" gridSize="10" guides="1" tooltips="1" connect="1" arrows="1" fold="1" page="1" pageScale="1" pageWidth="827" pageHeight="1169" math="0" shadow="0">
      <root>
        <mxCell id="0" />
        <mxCell id="1" parent="0" />
        <mxCell id="metEV9sD4KRQdtosPAau-4" value="SequencerPlayer" style="swimlane;fillColor=#ffffff;" parent="1" vertex="1">
          <mxGeometry x="260" y="80" width="270" height="400" as="geometry">
            <mxRectangle x="360" y="160" width="130" height="23" as="alternateBounds" />
          </mxGeometry>
        </mxCell>
        <mxCell id="metEV9sD4KRQdtosPAau-11" value="" style="edgeStyle=orthogonalEdgeStyle;rounded=0;orthogonalLoop=1;jettySize=auto;html=1;" parent="metEV9sD4KRQdtosPAau-4" source="metEV9sD4KRQdtosPAau-3" target="metEV9sD4KRQdtosPAau-5" edge="1">
          <mxGeometry relative="1" as="geometry" />
        </mxCell>
        <mxCell id="metEV9sD4KRQdtosPAau-3" value="BranchController" style="rounded=0;whiteSpace=wrap;html=1;direction=west;" parent="metEV9sD4KRQdtosPAau-4" vertex="1">
          <mxGeometry x="77.5" y="40" width="135" height="40" as="geometry" />
        </mxCell>
        <mxCell id="metEV9sD4KRQdtosPAau-5" value="SequencerCore" style="rounded=0;direction=west;whiteSpace=wrap;html=1;" parent="metEV9sD4KRQdtosPAau-4" vertex="1">
          <mxGeometry x="77.5" y="140" width="135" height="40" as="geometry" />
        </mxCell>
        <mxCell id="metEV9sD4KRQdtosPAau-6" value="SequencerSignalNotify" style="rounded=0;whiteSpace=wrap;html=1;direction=west;" parent="metEV9sD4KRQdtosPAau-4" vertex="1">
          <mxGeometry x="77.5" y="240" width="135" height="40" as="geometry" />
        </mxCell>
        <mxCell id="metEV9sD4KRQdtosPAau-9" value="" style="endArrow=classic;html=1;exitX=0.5;exitY=0;exitDx=0;exitDy=0;entryX=0.5;entryY=1;entryDx=0;entryDy=0;" parent="metEV9sD4KRQdtosPAau-4" source="metEV9sD4KRQdtosPAau-3" target="metEV9sD4KRQdtosPAau-5" edge="1">
          <mxGeometry width="50" height="50" relative="1" as="geometry">
            <mxPoint x="-90" y="170" as="sourcePoint" />
            <mxPoint x="10" y="170" as="targetPoint" />
          </mxGeometry>
        </mxCell>
        <mxCell id="metEV9sD4KRQdtosPAau-12" value="&lt;font style=&quot;font-size: 8px ; line-height: 100%&quot;&gt;(Currently invalid)&lt;/font&gt;" style="edgeLabel;html=1;align=center;verticalAlign=middle;resizable=0;points=[];fontSize=8;" parent="metEV9sD4KRQdtosPAau-9" vertex="1" connectable="0">
          <mxGeometry x="-0.5793" y="1" relative="1" as="geometry">
            <mxPoint x="-6" y="18" as="offset" />
          </mxGeometry>
        </mxCell>
        <mxCell id="metEV9sD4KRQdtosPAau-10" value="" style="endArrow=classic;html=1;exitX=0.5;exitY=0;exitDx=0;exitDy=0;entryX=0.5;entryY=1;entryDx=0;entryDy=0;fillColor=#d5e8d4;strokeColor=#82b366;strokeWidth=2;" parent="metEV9sD4KRQdtosPAau-4" edge="1">
          <mxGeometry width="50" height="50" relative="1" as="geometry">
            <mxPoint x="144.66000000000003" y="180" as="sourcePoint" />
            <mxPoint x="144.66000000000003" y="240" as="targetPoint" />
          </mxGeometry>
        </mxCell>
        <mxCell id="metEV9sD4KRQdtosPAau-13" value="&lt;font color=&quot;#00cc00&quot;&gt;cue&lt;/font&gt;" style="edgeLabel;html=1;align=center;verticalAlign=middle;resizable=0;points=[];fontSize=8;" parent="metEV9sD4KRQdtosPAau-10" vertex="1" connectable="0">
          <mxGeometry x="0.4322" relative="1" as="geometry">
            <mxPoint x="-25" y="-13" as="offset" />
          </mxGeometry>
        </mxCell>
        <mxCell id="wanQzv2yDF0tZSXgFPqZ-2" value="SequencerEntityProxy" style="rounded=0;direction=west;whiteSpace=wrap;html=1;" vertex="1" parent="metEV9sD4KRQdtosPAau-4">
          <mxGeometry x="77.5" y="340" width="135" height="40" as="geometry" />
        </mxCell>
        <mxCell id="wanQzv2yDF0tZSXgFPqZ-5" value="" style="endArrow=classic;html=1;fontSize=8;fontColor=#000000;strokeWidth=2;entryX=0.75;entryY=0;entryDx=0;entryDy=0;fillColor=#dae8fc;strokeColor=#6c8ebf;exitX=0.75;exitY=1;exitDx=0;exitDy=0;" edge="1" parent="metEV9sD4KRQdtosPAau-4" source="wanQzv2yDF0tZSXgFPqZ-2" target="metEV9sD4KRQdtosPAau-6">
          <mxGeometry width="50" height="50" relative="1" as="geometry">
            <mxPoint x="150" y="330" as="sourcePoint" />
            <mxPoint x="110" y="280" as="targetPoint" />
          </mxGeometry>
        </mxCell>
        <mxCell id="wanQzv2yDF0tZSXgFPqZ-6" value="register&lt;br&gt;data handler" style="edgeLabel;html=1;align=center;verticalAlign=middle;resizable=0;points=[];fontSize=8;fontColor=#4ABABA;" vertex="1" connectable="0" parent="wanQzv2yDF0tZSXgFPqZ-5">
          <mxGeometry x="-0.4588" y="1" relative="1" as="geometry">
            <mxPoint x="-40" y="-14" as="offset" />
          </mxGeometry>
        </mxCell>
        <mxCell id="metEV9sD4KRQdtosPAau-8" value="" style="endArrow=classic;html=1;exitX=1;exitY=0.5;exitDx=0;exitDy=0;entryX=0;entryY=0.5;entryDx=0;entryDy=0;fillColor=#d5e8d4;strokeColor=#82b366;strokeWidth=2;" parent="1" source="metEV9sD4KRQdtosPAau-1" target="metEV9sD4KRQdtosPAau-4" edge="1">
          <mxGeometry width="50" height="50" relative="1" as="geometry">
            <mxPoint x="390" y="420" as="sourcePoint" />
            <mxPoint x="250" y="240" as="targetPoint" />
          </mxGeometry>
        </mxCell>
        <mxCell id="metEV9sD4KRQdtosPAau-15" value="PerformanceModules" style="swimlane;fillColor=#ffffff;" parent="1" vertex="1">
          <mxGeometry x="610" y="80" width="270" height="400" as="geometry">
            <mxRectangle x="360" y="160" width="130" height="23" as="alternateBounds" />
          </mxGeometry>
        </mxCell>
        <mxCell id="metEV9sD4KRQdtosPAau-17" value="Camera" style="rounded=0;whiteSpace=wrap;html=1;direction=west;" parent="metEV9sD4KRQdtosPAau-15" vertex="1">
          <mxGeometry x="67.5" y="120" width="135" height="40" as="geometry" />
        </mxCell>
        <mxCell id="metEV9sD4KRQdtosPAau-18" value="Note" style="rounded=0;direction=west;whiteSpace=wrap;html=1;" parent="metEV9sD4KRQdtosPAau-15" vertex="1">
          <mxGeometry x="67.5" y="170" width="135" height="40" as="geometry" />
        </mxCell>
        <mxCell id="metEV9sD4KRQdtosPAau-19" value="Performer" style="rounded=0;whiteSpace=wrap;html=1;direction=west;" parent="metEV9sD4KRQdtosPAau-15" vertex="1">
          <mxGeometry x="67.5" y="220" width="135" height="40" as="geometry" />
        </mxCell>
        <mxCell id="metEV9sD4KRQdtosPAau-26" value="&lt;b&gt;.......&lt;/b&gt;" style="rounded=0;whiteSpace=wrap;html=1;direction=west;strokeColor=none;fillColor=none;" parent="metEV9sD4KRQdtosPAau-15" vertex="1">
          <mxGeometry x="67.5" y="270" width="135" height="40" as="geometry" />
        </mxCell>
        <mxCell id="metEV9sD4KRQdtosPAau-27" value="DataCore" style="rounded=0;whiteSpace=wrap;html=1;dashed=1;" parent="1" vertex="1">
          <mxGeometry x="260" y="30" width="270" height="30" as="geometry" />
        </mxCell>
        <mxCell id="metEV9sD4KRQdtosPAau-28" value="Application" style="rounded=0;whiteSpace=wrap;html=1;dashed=1;" parent="1" vertex="1">
          <mxGeometry x="610" y="30" width="270" height="30" as="geometry" />
        </mxCell>
        <mxCell id="metEV9sD4KRQdtosPAau-29" value="" style="endArrow=none;dashed=1;html=1;dashPattern=1 3;strokeWidth=1;fontSize=8;fontColor=#000000;" parent="1" edge="1">
          <mxGeometry width="50" height="50" relative="1" as="geometry">
            <mxPoint x="30" y="70" as="sourcePoint" />
            <mxPoint x="940" y="70" as="targetPoint" />
          </mxGeometry>
        </mxCell>
        <mxCell id="metEV9sD4KRQdtosPAau-31" value="Concert" style="swimlane;fillColor=#ffffff;" parent="1" vertex="1">
          <mxGeometry x="30" y="207.5" width="190" height="120" as="geometry">
            <mxRectangle x="360" y="160" width="130" height="23" as="alternateBounds" />
          </mxGeometry>
        </mxCell>
        <mxCell id="metEV9sD4KRQdtosPAau-1" value="Clock" style="rounded=0;whiteSpace=wrap;html=1;" parent="metEV9sD4KRQdtosPAau-31" vertex="1">
          <mxGeometry x="40" y="60" width="110" height="30" as="geometry" />
        </mxCell>
        <mxCell id="metEV9sD4KRQdtosPAau-41" value="" style="endArrow=classic;html=1;fontSize=8;fontColor=#000000;strokeWidth=2;entryX=0;entryY=0.5;entryDx=0;entryDy=0;fillColor=#dae8fc;strokeColor=#6c8ebf;" parent="1" target="metEV9sD4KRQdtosPAau-5" edge="1">
          <mxGeometry width="50" height="50" relative="1" as="geometry">
            <mxPoint x="610" y="240" as="sourcePoint" />
            <mxPoint x="530" y="160" as="targetPoint" />
          </mxGeometry>
        </mxCell>
        <mxCell id="metEV9sD4KRQdtosPAau-49" value="register &lt;br&gt;cue type&lt;br&gt;(section)" style="edgeLabel;html=1;align=center;verticalAlign=middle;resizable=0;points=[];fontSize=8;rotation=0;fontColor=#4ABABA;" parent="metEV9sD4KRQdtosPAau-41" vertex="1" connectable="0">
          <mxGeometry x="-0.2883" y="2" relative="1" as="geometry">
            <mxPoint x="9" y="-32" as="offset" />
          </mxGeometry>
        </mxCell>
        <mxCell id="metEV9sD4KRQdtosPAau-44" value="" style="endArrow=classic;html=1;fontSize=8;fontColor=#000000;strokeWidth=2;entryX=0;entryY=0.75;entryDx=0;entryDy=0;fillColor=#dae8fc;strokeColor=#6c8ebf;" parent="1" edge="1">
          <mxGeometry width="50" height="50" relative="1" as="geometry">
            <mxPoint x="610" y="330" as="sourcePoint" />
            <mxPoint x="472.5" y="330" as="targetPoint" />
          </mxGeometry>
        </mxCell>
        <mxCell id="metEV9sD4KRQdtosPAau-50" value="register&lt;br&gt;data handler" style="edgeLabel;html=1;align=center;verticalAlign=middle;resizable=0;points=[];fontSize=8;fontColor=#4ABABA;" parent="metEV9sD4KRQdtosPAau-44" vertex="1" connectable="0">
          <mxGeometry x="-0.4588" y="1" relative="1" as="geometry">
            <mxPoint x="-3" y="-21" as="offset" />
          </mxGeometry>
        </mxCell>
        <mxCell id="metEV9sD4KRQdtosPAau-46" style="edgeStyle=orthogonalEdgeStyle;rounded=0;orthogonalLoop=1;jettySize=auto;html=1;exitX=0;exitY=0.25;exitDx=0;exitDy=0;fontSize=10;fontColor=#000000;strokeWidth=2;fillColor=#d5e8d4;strokeColor=#82b366;fontStyle=0" parent="1" source="metEV9sD4KRQdtosPAau-6" edge="1">
          <mxGeometry relative="1" as="geometry">
            <mxPoint x="610" y="349.8620689655173" as="targetPoint" />
          </mxGeometry>
        </mxCell>
        <mxCell id="metEV9sD4KRQdtosPAau-51" value="data handle" style="edgeLabel;html=1;align=center;verticalAlign=middle;resizable=0;points=[];fontSize=8;fontColor=#4ABABA;" parent="metEV9sD4KRQdtosPAau-46" vertex="1" connectable="0">
          <mxGeometry x="0.3892" y="-3" relative="1" as="geometry">
            <mxPoint y="7" as="offset" />
          </mxGeometry>
        </mxCell>
        <mxCell id="metEV9sD4KRQdtosPAau-53" value="" style="endArrow=classic;html=1;fontSize=8;fontColor=#000000;strokeWidth=2;entryX=0;entryY=0.75;entryDx=0;entryDy=0;fillColor=#dae8fc;strokeColor=#6c8ebf;" parent="1" edge="1">
          <mxGeometry width="50" height="50" relative="1" as="geometry">
            <mxPoint x="85" y="387.08" as="sourcePoint" />
            <mxPoint x="155" y="387.08" as="targetPoint" />
          </mxGeometry>
        </mxCell>
        <mxCell id="metEV9sD4KRQdtosPAau-54" value="init" style="edgeLabel;html=1;align=center;verticalAlign=middle;resizable=0;points=[];fontSize=8;rotation=0;fontColor=#4ABABA;" parent="metEV9sD4KRQdtosPAau-53" vertex="1" connectable="0">
          <mxGeometry x="-0.2883" y="2" relative="1" as="geometry">
            <mxPoint x="5" y="-8" as="offset" />
          </mxGeometry>
        </mxCell>
        <mxCell id="metEV9sD4KRQdtosPAau-60" value="" style="endArrow=classic;html=1;exitX=1;exitY=0.5;exitDx=0;exitDy=0;fillColor=#d5e8d4;strokeColor=#82b366;strokeWidth=2;" parent="1" edge="1">
          <mxGeometry width="50" height="50" relative="1" as="geometry">
            <mxPoint x="85" y="417.07999999999976" as="sourcePoint" />
            <mxPoint x="155" y="417.08" as="targetPoint" />
          </mxGeometry>
        </mxCell>
        <mxCell id="metEV9sD4KRQdtosPAau-62" value="runtime" style="edgeLabel;html=1;align=center;verticalAlign=middle;resizable=0;points=[];fontSize=10;fontColor=#4ABABA;" parent="metEV9sD4KRQdtosPAau-60" vertex="1" connectable="0">
          <mxGeometry x="0.3657" relative="1" as="geometry">
            <mxPoint x="-18" y="-10" as="offset" />
          </mxGeometry>
        </mxCell>
        <mxCell id="metEV9sD4KRQdtosPAau-63" value="" style="rounded=0;whiteSpace=wrap;html=1;dashed=1;fillColor=none;strokeWidth=2;" parent="1" vertex="1">
          <mxGeometry x="60" y="362.5" width="110" height="70" as="geometry" />
        </mxCell>
        <mxCell id="wanQzv2yDF0tZSXgFPqZ-7" style="edgeStyle=orthogonalEdgeStyle;rounded=0;orthogonalLoop=1;jettySize=auto;html=1;fontSize=10;fontColor=#000000;strokeWidth=2;fillColor=#d5e8d4;strokeColor=#82b366;fontStyle=0;" edge="1" parent="1">
          <mxGeometry relative="1" as="geometry">
            <mxPoint x="430" y="420" as="targetPoint" />
            <mxPoint x="433" y="361" as="sourcePoint" />
            <Array as="points">
              <mxPoint x="430" y="361" />
              <mxPoint x="430" y="420" />
            </Array>
          </mxGeometry>
        </mxCell>
        <mxCell id="wanQzv2yDF0tZSXgFPqZ-8" value="data update" style="edgeLabel;html=1;align=center;verticalAlign=middle;resizable=0;points=[];fontSize=8;fontColor=#4ABABA;" vertex="1" connectable="0" parent="wanQzv2yDF0tZSXgFPqZ-7">
          <mxGeometry x="0.3892" y="-3" relative="1" as="geometry">
            <mxPoint x="43" y="-10" as="offset" />
          </mxGeometry>
        </mxCell>
        <mxCell id="wanQzv2yDF0tZSXgFPqZ-12" value="" style="endArrow=classic;html=1;exitX=1;exitY=0.5;exitDx=0;exitDy=0;fillColor=#d5e8d4;strokeColor=#82b366;strokeWidth=2;entryX=0;entryY=0.5;entryDx=0;entryDy=0;" edge="1" parent="1" target="wanQzv2yDF0tZSXgFPqZ-2">
          <mxGeometry width="50" height="50" relative="1" as="geometry">
            <mxPoint x="610" y="440" as="sourcePoint" />
            <mxPoint x="530" y="440" as="targetPoint" />
          </mxGeometry>
        </mxCell>
        <mxCell id="wanQzv2yDF0tZSXgFPqZ-14" value="data select" style="edgeLabel;html=1;align=center;verticalAlign=middle;resizable=0;points=[];fontSize=8;fontColor=#4ABABA;" vertex="1" connectable="0" parent="1">
          <mxGeometry x="540.0016522461807" y="439.9950369389834" as="geometry">
            <mxPoint x="33" y="-16" as="offset" />
          </mxGeometry>
        </mxCell>
      </root>
    </mxGraphModel>
  </diagram>
</mxfile>
